<svg xmlns="http://www.w3.org/2000/svg" xml:space="preserve" viewBox="0 0 254.019 254.019">
  <path fill="white" d="M126.514 48.282c-43.428 0-78.738 35.319-78.738 78.738 0 43.389 35.309 78.718 78.738 78.718 43.389 0 78.738-35.329 78.738-78.708 0-43.429-35.32-78.748-78.738-78.748zm0 150.616c-39.647 0-71.879-32.232-71.879-71.869s32.222-71.928 71.879-71.928 71.879 32.29 71.879 71.928-32.222 71.869-71.879 71.869zm66.838-71.869c0 36.882-29.926 66.808-66.828 66.808-36.912 0-66.838-29.936-66.838-66.808 0-36.921 29.936-66.847 66.838-66.847 36.902-.01 66.828 29.926 66.828 66.847zM41.308 56.733l.02 38.836h-.059c-.391 12.389-13.971 17.117-13.971 17.117v24.924h.02l-.02 57.312s-5.491 7.093-12.604 0v-82.226h.166C6.575 109.169.449 107.948.058 95.579H0V56.733l6.224-.029L9.252 94.28H16.6l.928-38.348h5.989l.723 38.348h8.617l1.983-37.547h6.468zM252.1 122.857h-15.232v77.038h-17.596V54.144h17.596c.01-.01 23.976 30.404 15.232 68.713z"/>
</svg>